{"title":"The 50 Year Argument 2014 HDTV 720p Legendado PT-BR","uid":13268220,"size":2171280473,"categoryP":"video","categoryS":"hd___tv_shows","magnet":"?xt=urn:btih:b4525a46f1973df6082e887598b0c1c6883dab55&amp;dn=The+50+Year+Argument+2014+HDTV+720p+Legendado+PT-BR&amp;tr=udp%3A%2F%2Ftracker.leechers-paradise.org%3A6969&amp;tr=udp%3A%2F%2Fzer0day.ch%3A1337&amp;tr=udp%3A%2F%2Fopen.demonii.com%3A1337&amp;tr=udp%3A%2F%2Ftracker.coppersurfer.tk%3A6969&amp;tr=udp%3A%2F%2Fexodus.desync.com%3A6969","seeders":1,"leechers":1,"uploader":null,"files":1,"time":1453366532,"description":"Audio: English\r\nLegendas/subtitles: Portuguese (hardsubed)\r\n\r\n\r\n===========================================\r\n\r\n&quot;Social Media is Bullshit&quot; reads the cover of a book, propped up prominently in the West Village offices of the New York Review of Books. The magazine has a website, but Martin Scorsese and David Tedeschi's documentary on the publication's first 50 years dispenses with it in five minutes. The NYRB couldn't give a fig for the clattering pace of the internet. Its articles are worked, its writers questioned. You imagine their workplace culture – centred on the presence of quiet, determined editor Bob Silvers – is unlike any other news office in the modern age.\r\n\r\n\r\nRead more: www.theguardian.com/film/2014/jun/07/sheffield-doc-fest-2014-50-year-argument-martin-scorsese\r\n\r\n============================================\r\n\r\n&quot;A Mídia Social é Besteira&quot; diz a capa de um livro, proeminentemente exibido nos escritórios da New York Review of Books em West Village. A revista tem um website, mas o documentário de Martin Scorsese e David Tadeschi sobre o aniversário de 50 anos da publicação dispensa a ele 5 minutos. A NYRB não dá a mínima para o ritmo tagarelante da internet. Seus artigos são analisados, seus escritores questionados. Impossível imaginar que seu método de trabalho - centrado na presença quieta e determinada do editor Bob Silvers - seja tão diferente das outras redações da era moderna.\r\n\r\n\r\n================================================\r\n\r\nVideo\r\nID                             : 1\r\nFormat                         : AVC\r\nFormat/Info                    : Advanced Video Codec\r\nFormat profile                 :   \r\nFormat settings, CABAC         : Yes\r\nFormat settings, ReFrames      : 4 frames\r\nCodec ID                       : V_MPEG4/ISO/AVC\r\nDuration                       : 1h 36mn\r\nBit rate                       : 2 599 Kbps\r\nWidth                          : 1 280 pixels\r\nHeight                         : 720 pixels\r\nDisplay aspect ratio           : 16:9\r\nFrame rate mode                : Constant\r\nFrame rate                     : 59.880 fps\r\nOriginal frame rate            : 59.940 fps\r\nColor space                    : YUV\r\nChroma subsampling             : 4:2:0\r\nBit depth                      : 8 bits\r\nScan type                      : Progressive\r\nBits/(Pixel*Frame)             : 0.047\r\nStream size                    : 1.72 GiB (85%)\r\n\r\n\r\nAudio\r\nID                             : 2\r\nFormat                         : AC-3\r\nFormat/Info                    : Audio Coding 3\r\nMode extension                 : CM (complete main)\r\nFormat settings, Endianness    : Big\r\nCodec ID                       : A_AC3\r\nDuration                       : 1h 36mn\r\nBit rate mode                  : Constant\r\nBit rate                       : 384 Kbps\r\nChannel(s)                     : 2 channels\r\nChannel positions              : Front: L R\r\nSampling rate                  : 48.0 KHz\r\nBit depth                      : 16 bits\r\nCompression mode               : Lossy\r\nDelay relative to video        : 14ms\r\nStream size                    : 266 MiB (13%)\r\nLanguage                       : English\r\nDefault                        : Yes\r\nForced                         : No","torrent":{"xt":"urn:btih:b4525a46f1973df6082e887598b0c1c6883dab55","amp;dn":"The+50+Year+Argument+2014+HDTV+720p+Legendado+PT-BR","amp;tr":["udp%3A%2F%2Ftracker.leechers-paradise.org%3A6969","udp%3A%2F%2Fzer0day.ch%3A1337","udp%3A%2F%2Fopen.demonii.com%3A1337","udp%3A%2F%2Ftracker.coppersurfer.tk%3A6969","udp%3A%2F%2Fexodus.desync.com%3A6969"],"infoHash":"b4525a46f1973df6082e887598b0c1c6883dab55","infoHashBuffer":{"type":"Buffer","data":[180,82,90,70,241,151,61,246,8,46,136,117,152,176,193,198,136,61,171,85]},"announce":[],"urlList":[]}}